<?xml version="1.0" standalone="no"?>
<!DOCTYPE svg PUBLIC "-//W3C//DTD SVG 20010904//EN"
 "http://www.w3.org/TR/2001/REC-SVG-20010904/DTD/svg10.dtd">
<svg version="1.0" xmlns="http://www.w3.org/2000/svg"
 width="112.000000pt" height="104.000000pt" viewBox="0 0 112.000000 104.000000"
 preserveAspectRatio="xMidYMid meet">

<g transform="translate(0.000000,104.000000) scale(0.100000,-0.100000)"
fill="#000000" stroke="none">
<path d="M507 943 c18 -2 50 -2 70 0 21 2 7 4 -32 4 -38 0 -55 -2 -38 -4z"/>
<path d="M403 924 c-18 -9 -49 -36 -69 -61 -31 -38 -38 -55 -45 -116 -10 -87
-11 -102 -4 -95 3 2 10 40 15 83 11 90 29 123 22 42 -3 -34 0 -57 7 -61 16
-10 14 -26 -2 -20 -10 4 -12 -3 -9 -25 2 -17 8 -28 13 -25 5 3 9 -19 9 -49 0
-30 3 -70 6 -88 4 -26 3 -30 -5 -19 -6 8 -11 11 -11 5 0 -5 -5 -3 -10 5 -6 10
-10 11 -10 3 0 -7 16 -30 35 -52 l35 -38 0 -162 0 -161 60 0 60 0 1 78 2 77
11 -75 11 -75 41 -3 42 -3 13 88 14 88 3 -87 3 -88 54 0 55 0 0 148 c0 139 1
150 21 168 12 10 28 32 36 49 l14 30 -20 -25 c-19 -23 -21 -23 -21 -5 0 11 7
33 15 49 8 15 15 39 15 52 0 13 5 24 11 24 8 0 10 -16 6 -47 -5 -48 -5 -48 10
-19 8 16 17 54 20 85 6 63 -19 142 -61 200 -34 45 -146 141 -165 140 -12 0
-10 -3 4 -9 25 -10 72 -60 57 -60 -7 0 -12 4 -12 9 0 5 -7 12 -16 15 -8 3 -13
2 -10 -3 12 -19 -24 -19 -49 1 -27 21 -41 19 -32 -6 3 -8 25 -20 48 -26 l41
-11 -21 -23 c-43 -45 -16 -112 50 -122 29 -5 41 -2 58 15 28 28 27 53 -5 90
-19 23 -22 31 -11 31 30 0 57 -49 57 -102 0 -41 -3 -49 -16 -44 -8 3 -12 2 -9
-4 10 -16 35 -12 35 6 0 8 5 12 10 9 6 -3 10 -17 10 -31 0 -16 -4 -23 -11 -18
-7 4 -10 1 -7 -7 3 -8 11 -13 17 -11 6 1 11 -10 11 -24 0 -14 -4 -23 -9 -19
-5 3 -12 -5 -16 -17 -44 -167 -54 -184 -54 -101 -1 43 -6 75 -13 79 -7 4 -8 3
-4 -4 4 -7 3 -12 -2 -12 -6 0 -9 21 -8 48 1 41 4 47 23 50 17 2 26 -4 35 -23
8 -18 14 -22 20 -13 13 22 9 28 -27 45 -24 12 -34 22 -30 32 4 11 0 10 -15 -4
-13 -11 -20 -31 -20 -52 0 -20 -4 -32 -10 -28 -5 3 -10 2 -10 -4 0 -5 5 -13
10 -16 24 -15 9 -35 -25 -35 -28 0 -35 4 -35 19 0 28 -15 34 -31 13 -13 -15
-12 -16 4 -3 15 12 17 11 17 -9 0 -17 -4 -21 -19 -17 -22 5 -24 0 -37 -103
l-8 -55 -7 49 c-4 27 -3 59 2 73 5 14 7 28 4 31 -3 3 -5 0 -5 -6 0 -7 -4 -12
-10 -12 -14 0 -13 47 1 56 6 3 16 0 21 -7 8 -12 9 -11 5 1 -6 23 -33 23 -43
-1 -8 -17 -20 -22 -69 -25 -84 -6 -85 -7 -85 -61 0 -34 -3 -44 -11 -36 -6 6
-13 54 -15 108 -2 53 -6 101 -9 106 -11 17 21 20 58 4 20 -8 46 -15 57 -15 17
0 20 -7 21 -42 1 -27 3 -34 6 -18 5 30 29 50 57 50 19 -1 19 -2 4 -11 -10 -5
-18 -15 -18 -21 0 -7 6 -6 15 2 12 10 21 10 41 1 34 -15 37 -14 31 9 -6 24 6
33 34 25 17 -6 19 -9 8 -16 -8 -5 -9 -9 -4 -9 6 0 17 5 25 10 13 8 12 11 -4
23 -11 8 -16 19 -12 25 4 8 2 10 -7 6 -15 -5 -56 65 -58 97 0 8 -4 4 -10 -9
-9 -23 3 -62 19 -62 4 0 8 -10 8 -23 1 -16 -4 -22 -20 -22 -11 -1 -30 -4 -42
-8 -20 -7 -21 -5 -17 45 4 57 -20 119 -47 124 -8 2 -24 6 -35 9 -30 9 -89 -34
-93 -68 -5 -40 36 -77 87 -77 59 0 74 39 47 115 -7 20 -7 20 8 1 40 -50 25
-128 -28 -142 -29 -7 -123 32 -136 57 -15 27 -12 82 6 108 15 21 23 23 75 19
32 -2 56 -1 53 4 -3 4 6 10 20 14 14 3 30 12 36 19 18 22 -7 28 -44 10 -19 -9
-40 -14 -46 -10 -6 4 -16 2 -23 -3 -7 -5 -25 -12 -42 -16 l-30 -7 26 26 c14
14 43 32 65 40 22 8 30 14 19 14 -11 0 -34 -7 -52 -15z m328 -113 c33 -33 36
-56 12 -83 -21 -24 -54 -23 -87 3 -31 25 -34 61 -6 89 27 27 46 25 81 -9z
m-264 4 c27 -19 41 -79 23 -100 -18 -22 -72 -19 -98 5 -33 31 -28 66 11 90 39
24 37 24 64 5z m382 -194 c1 -48 -5 -35 -12 24 -4 32 -3 43 3 30 5 -11 9 -35
9 -54z m-315 -108 c2 -10 10 -60 17 -112 14 -104 22 -100 33 14 13 122 9 116
85 113 l66 -3 3 -212 2 -213 -45 0 -45 0 0 147 c0 81 -4 143 -8 137 -5 -5 -17
-71 -27 -147 l-18 -138 -31 3 -31 3 -19 138 c-10 75 -23 137 -27 137 -5 0 -9
-63 -9 -140 l0 -140 -40 0 -40 0 0 215 0 215 64 0 c53 0 66 -3 70 -17z"/>
<path d="M650 796 c-18 -22 4 -46 42 -46 26 0 29 3 26 28 -2 21 -9 28 -29 30
-14 2 -31 -4 -39 -12z m55 -16 c0 -18 -16 -22 -35 -10 -13 9 -13 11 0 20 19
12 35 8 35 -10z"/>
<path d="M395 780 c-7 -11 0 -13 28 -11 10 2 17 -5 17 -14 0 -13 -6 -16 -25
-11 -30 8 -34 -10 -4 -19 31 -10 55 16 40 44 -12 22 -45 28 -56 11z"/>
<path d="M487 848 c-3 -10 0 -15 11 -14 10 0 24 -14 34 -34 10 -20 18 -27 18
-18 0 10 -13 32 -28 49 -23 25 -30 29 -35 17z"/>
<path d="M606 825 c-9 -26 -7 -32 5 -12 6 10 9 21 6 23 -2 3 -7 -2 -11 -11z"/>
<path d="M551 724 c0 -11 3 -14 6 -6 3 7 2 16 -1 19 -3 4 -6 -2 -5 -13z"/>
<path d="M371 624 c-17 -38 -13 -53 6 -20 15 28 16 29 29 11 8 -10 15 -26 15
-34 1 -9 4 -3 8 13 8 40 26 30 24 -14 -2 -32 -1 -33 8 -10 16 40 4 69 -30 68
-15 -1 -33 2 -38 5 -6 4 -15 -5 -22 -19z"/>
<path d="M291 599 c1 -19 5 -45 9 -59 6 -16 7 -6 3 30 -7 63 -13 80 -12 29z"/>
</g>
</svg>
